<svg version="1.1" xmlns="http://www.w3.org/2000/svg" viewBox="0 0 2048 2048" width="1024" height="1024" preserveAspectRatio="none">
<path transform="translate(0,0)" fill="rgb(254,254,254)" d="M 1004.23 384.566 C 1030.6 382.816 1067.9 383.725 1093.26 391.028 C 1098.94 392.662 1103.11 421.703 1104.34 427.958 C 1107.6 444.796 1111.1 461.589 1114.83 478.33 C 1161.89 493.087 1185.12 500.238 1228.92 526.069 C 1239.06 519.193 1300.24 475.009 1307.06 479.245 C 1332.73 495.175 1392.88 551.6 1405.34 578.619 C 1401.24 587.763 1392.29 600.386 1386.47 609.081 L 1355.25 655.299 C 1379.69 698.698 1387.32 717.457 1400.69 765.491 C 1415.47 769.412 1478.25 779.673 1486.81 785.112 C 1489.81 787.025 1491.04 791.472 1491.83 794.769 C 1496.52 814.535 1499.36 911.01 1489.1 925.48 C 1484.91 931.399 1412.61 944.697 1400.94 947.224 C 1386.91 996.058 1380.15 1012.9 1355.02 1057.37 C 1367.4 1077.9 1395.21 1114.57 1404.29 1134.48 C 1391.51 1159.15 1329.19 1221.85 1305.08 1235.24 C 1287.75 1229.14 1246.55 1198.1 1227.6 1186.71 C 1180.57 1211.53 1167.75 1218.8 1115.3 1233.55 C 1111.77 1247.5 1101.3 1314.52 1094.94 1321.07 C 1088.32 1327.88 1051.45 1327.81 1040.75 1328.19 C 1029.91 1328.74 960.663 1328.21 954.393 1322.1 C 948.132 1315.99 935.959 1246.81 933.426 1233.68 C 929.14 1232.32 924.336 1230.91 919.973 1229.77 C 883.979 1220.37 853.415 1203.97 821.048 1186.35 L 777.54 1215.44 C 767.796 1221.94 754.914 1231.08 744.239 1235.38 C 742.249 1234.38 740.313 1233.28 738.439 1232.08 C 719.836 1219.99 653.856 1157.49 645.033 1135.28 C 642.654 1129.3 685.854 1069.21 693.567 1057.98 C 669.68 1014.91 660.739 995.818 647.597 947.59 C 634.069 944.015 559.546 932.711 557.634 922.28 C 550.13 881.354 549.16 828.746 558.259 788.14 C 559.513 782.542 639.302 767.432 648.291 765.499 C 656.85 723.15 671.859 692.182 693.31 655.534 C 681.147 638.455 650.899 596.157 643.501 578.434 C 643.889 577.601 644.301 576.779 644.728 575.966 C 654.353 557.625 725.198 481.814 742.833 478.831 C 751.883 477.3 808.541 518.678 819.365 525.983 C 867.262 500.105 882.006 493.764 934.068 478.327 C 936.476 465.411 946.705 398.464 953.595 391.96 C 960.506 385.437 993.756 387.617 1004.23 384.566 z"/>
<path transform="translate(0,0)" fill="rgb(0,134,245)" d="M 1023.74 538.707 C 1027.97 540.192 1048.54 555.005 1053.36 558.214 C 1091.83 583.817 1133.8 602.024 1177.02 617.83 C 1165.08 628.971 1148.87 640.494 1135.86 652.255 C 1090.85 634.278 1064.78 620.515 1024.32 594.787 C 1008.57 604.02 993.987 613.996 977.55 622.64 C 925.293 650.118 854.113 677.011 795.231 682.637 C 786.195 754.468 791.74 841.175 814.567 910.069 C 850.481 1018.46 924.6 1085.62 1024.22 1135.54 C 1077.94 1109.09 1124.14 1076.6 1164.44 1032.27 C 1135.21 995.602 1105.3 954.634 1077.07 916.999 C 1090.83 896.143 1104.96 875.536 1119.46 855.187 C 1149.07 893.123 1177.71 933.584 1207.24 971.206 C 1222.24 943.956 1229.52 923.62 1238.41 894.249 C 1257.03 831.176 1260.88 755.254 1253.77 690.058 C 1266.75 676.318 1281.78 659.701 1295.51 647.094 C 1297.98 670.239 1301.49 692.735 1302.55 716.261 C 1305.98 792.27 1299.15 865.807 1273.75 937.718 C 1241.15 1030.03 1177.03 1099.05 1094.62 1150.02 C 1070.24 1165.1 1049.91 1174.72 1024.29 1186.92 C 786.56 1082.5 718.775 887.287 753.602 641.201 C 769.358 640.523 793.376 636.75 808.96 633.65 C 890.986 617.332 955.93 586.246 1023.74 538.707 z"/>
<path transform="translate(0,0)" fill="rgb(0,134,245)" d="M 1342.82 561.301 L 1343.7 562.345 C 1196.5 685.569 1088.66 833.208 992.097 997.321 C 966.85 956.673 941.781 916.319 913.212 877.91 C 898.201 857.336 879.856 835.523 858.811 821.257 C 912.102 787.081 925.493 772.56 970.524 832.996 C 976.804 841.425 984.785 851.209 991.427 859.597 C 1018.54 823.78 1049.14 784.716 1079.6 751.697 C 1140.21 685.972 1252.47 580.244 1342.82 561.301 z"/>
<path transform="translate(0,0)" fill="rgb(254,254,254)" d="M 431.1 1418.25 L 503.143 1418.13 C 548.976 1418.07 605.26 1414.58 632.755 1460.57 C 649.312 1488.27 648.52 1529.83 628.773 1555.77 C 619.541 1567.89 610.204 1573.88 597.07 1581.42 C 613.845 1607.37 633.208 1634.64 650.689 1660.25 L 627.5 1660.31 L 586.843 1660.56 C 572.57 1638.09 555.665 1614.04 540.707 1591.82 C 523.928 1591.62 507.147 1591.67 490.37 1591.99 L 490.235 1660.34 L 431.076 1660.4 L 431.1 1418.25 z"/>
<path transform="translate(0,0)" fill="rgb(0,134,245)" d="M 503.687 1465.49 C 531.204 1465.2 578.693 1459.43 584.825 1497.12 C 587.962 1516.41 582.936 1528.16 566.871 1539.03 C 547.834 1547.85 512.214 1545.01 490.304 1544.86 C 489.883 1518.82 490.258 1491.81 490.278 1465.7 L 503.687 1465.49 z"/>
<path transform="translate(0,0)" fill="rgb(254,254,254)" d="M 683.726 1418.32 L 742.666 1418.27 C 741.581 1459.27 743.536 1500.96 742.408 1541.98 C 741.409 1578.32 748.888 1613.33 793.722 1614.53 C 856.202 1616.21 847.974 1554.78 847.838 1512.01 L 847.641 1418.31 C 866.907 1418.05 886.652 1418.29 905.956 1418.3 L 905.863 1466.63 L 905.956 1525.17 C 905.986 1563.03 907.361 1605.88 878.358 1634.2 C 824.973 1686.32 707.42 1672.02 688.48 1591.57 C 682.054 1564.28 683.846 1535.19 683.823 1507.54 L 683.726 1418.32 z"/>
<path transform="translate(0,0)" fill="rgb(254,254,254)" d="M 1373.14 1418.39 L 1438.67 1418.16 C 1454.93 1442.37 1474.65 1471.75 1491.96 1495.1 C 1507.88 1474.57 1531 1440.03 1545.99 1418.16 L 1610.64 1418.22 C 1600.63 1433.35 1587.51 1450.69 1576.79 1465.57 C 1560.04 1488.83 1543.44 1512.19 1526.98 1535.66 L 1616.53 1660.16 L 1605.61 1660.25 L 1548.12 1660.49 C 1530.04 1634.63 1509.46 1602.8 1490.66 1578.14 C 1479.86 1595.12 1466.94 1612.67 1455.7 1629.56 C 1451.11 1636.46 1438.46 1655.24 1433.4 1660.65 L 1367.02 1660.22 C 1377.48 1646.89 1389.43 1629.34 1399.48 1615.37 L 1455.65 1537.23 C 1434.14 1505.2 1410.83 1474.16 1388.93 1442.39 C 1383.91 1435.11 1377.09 1426.21 1373.14 1418.39 z"/>
<path transform="translate(0,0)" fill="rgb(254,254,254)" d="M 1110.28 1418.06 C 1130.9 1418.42 1152.12 1418.16 1172.79 1418.14 L 1235.84 1521.92 C 1257.16 1487.6 1278.04 1453 1298.46 1418.13 L 1358.05 1418.18 C 1341.4 1446.71 1322.73 1475.97 1305.52 1504.44 C 1298.91 1515.12 1265.12 1566.83 1264.24 1575.14 C 1262.26 1593.82 1263.57 1639.6 1263.63 1660.39 L 1204.93 1660.36 C 1204.91 1649.05 1206 1577.78 1203.93 1573.9 C 1182.36 1533.4 1133.1 1457.48 1110.28 1418.06 z"/>
<path transform="translate(0,0)" fill="rgb(254,254,254)" d="M 957.202 1418.35 C 976.618 1418.17 996.036 1418.21 1015.45 1418.46 C 1014.33 1481.91 1015.32 1548.41 1015.38 1612.09 C 1055.47 1612.58 1096.89 1612.12 1137.07 1612.12 L 1137.11 1660.31 L 957.067 1660.26 L 957.202 1418.35 z"/>
</svg>
