<svg width="1024" height="1024" viewBox="0 0 1024 1024" fill="none" xmlns="http://www.w3.org/2000/svg">
  <defs>
    <linearGradient id="bg" x1="128" y1="96" x2="896" y2="928" gradientUnits="userSpaceOnUse">
      <stop stop-color="#1693FF"/>
      <stop offset="0.52" stop-color="#0C7DFF"/>
      <stop offset="1" stop-color="#10D4C9"/>
    </linearGradient>
    <linearGradient id="glow" x1="278" y1="228" x2="764" y2="822" gradientUnits="userSpaceOnUse">
      <stop stop-color="white" stop-opacity="0.42"/>
      <stop offset="1" stop-color="white" stop-opacity="0"/>
    </linearGradient>
    <filter id="shadow" x="198" y="166" width="628" height="716" filterUnits="userSpaceOnUse" color-interpolation-filters="sRGB">
      <feFlood flood-opacity="0" result="BackgroundImageFix"/>
      <feColorMatrix in="SourceAlpha" type="matrix" values="0 0 0 0 0 0 0 0 0 0 0 0 0 0 0 0 0 0 127 0" result="hardAlpha"/>
      <feOffset dy="24"/>
      <feGaussianBlur stdDeviation="28"/>
      <feColorMatrix type="matrix" values="0 0 0 0 0.026 0 0 0 0 0.225 0 0 0 0 0.52 0 0 0 0.18 0"/>
      <feBlend mode="normal" in2="BackgroundImageFix" result="effect1_dropShadow_1_2"/>
      <feBlend mode="normal" in="SourceGraphic" in2="effect1_dropShadow_1_2" result="shape"/>
    </filter>
  </defs>
  <rect width="1024" height="1024" rx="224" fill="url(#bg)"/>
  <path d="M160 222C246 135 383 88 520 88C707 88 860 176 918 314C866 272 811 256 760 256C661 256 604 316 536 398C504 438 462 488 402 530C317 590 246 604 188 588C123 570 84 520 72 462C111 493 164 510 225 510C337 510 411 437 482 363C557 284 632 204 760 204C837 204 890 228 930 258C879 159 724 72 520 72C347 72 219 128 160 222Z" fill="url(#glow)" fill-opacity="0.6"/>
  <g filter="url(#shadow)">
    <path d="M512 220L734 304V498C734 652 642 778 512 834C382 778 290 652 290 498V304L512 220Z" fill="white"/>
    <path d="M512 276L688 344V500C688 624 617 730 512 781C407 730 336 624 336 500V344L512 276Z" fill="#0E7DFF"/>
    <path d="M512 312L646 363V500C646 598 591 684 512 728C433 684 378 598 378 500V363L512 312Z" fill="#F7FBFF"/>
    <rect x="434" y="410" width="156" height="28" rx="14" fill="#0E7DFF"/>
    <rect x="434" y="466" width="126" height="28" rx="14" fill="#1D95FF"/>
    <rect x="434" y="522" width="166" height="28" rx="14" fill="#10C7CC"/>
    <path d="M372 430C372 399.072 397.072 374 428 374H470L428 430H372Z" fill="#10C7CC"/>
    <path d="M378 502C378 462.235 410.235 430 450 430H470L410 502H378Z" fill="#179CFF"/>
    <path d="M378 574C378 540.863 404.863 514 438 514H470L420 574H378Z" fill="#0E7DFF"/>
    <circle cx="594" cy="626" r="58" fill="#0E7DFF"/>
    <path d="M568 626L586 644L624 606" stroke="white" stroke-width="22" stroke-linecap="round" stroke-linejoin="round"/>
  </g>
</svg>
